<?xml version="1.0" encoding="UTF-8" standalone="no"?>
<!DOCTYPE svg PUBLIC "-//W3C//DTD SVG 1.1//EN"
 "http://www.w3.org/Graphics/SVG/1.1/DTD/svg11.dtd">
<!-- Generated by graphviz version 2.26.3 (20100126.1600)
 -->
<!-- Title: G Pages: 1 -->
<svg width="860pt" height="512pt"
 viewBox="0.00 0.00 860.00 512.00" xmlns="http://www.w3.org/2000/svg" xmlns:xlink="http://www.w3.org/1999/xlink">
<g id="graph1" class="graph" transform="scale(1 1) rotate(0) translate(4 508)">
<title>G</title>
<polygon fill="white" stroke="white" points="-4,5 -4,-508 857,-508 857,5 -4,5"/>
<g id="graph2" class="cluster"><title>cluster_Global</title>
<polyline fill="none" stroke="gray" points="20,-98 832,-98 "/>
<path fill="none" stroke="gray" d="M832,-98C838,-98 844,-104 844,-110"/>
<polyline fill="none" stroke="gray" points="844,-110 844,-484 "/>
<path fill="none" stroke="gray" d="M844,-484C844,-490 838,-496 832,-496"/>
<polyline fill="none" stroke="gray" points="832,-496 20,-496 "/>
<path fill="none" stroke="gray" d="M20,-496C14,-496 8,-490 8,-484"/>
<polyline fill="none" stroke="gray" points="8,-484 8,-110 "/>
<path fill="none" stroke="gray" d="M8,-110C8,-104 14,-98 20,-98"/>
<text text-anchor="middle" x="426" y="-482.1" font-family="Times Roman,serif" font-size="11.00" fill="gray">Global</text>
</g>
<!-- \\CheddarGetter_Client_CurlAdapter -->
<g id="node2" class="node"><title>\\CheddarGetter_Client_CurlAdapter</title>
<polygon fill="none" stroke="black" points="829,-412 625,-412 625,-376 829,-376 829,-412"/>
<text text-anchor="middle" x="727" y="-391.1" font-family="Times Roman,serif" font-size="11.00">CheddarGetter_Client_CurlAdapter</text>
</g>
<!-- \\CheddarGetter_Client_AdapterInterface -->
<g id="node10" class="node"><title>\\CheddarGetter_Client_AdapterInterface</title>
<polygon fill="none" stroke="black" points="546,-439 314,-439 314,-403 546,-403 546,-439"/>
<text text-anchor="middle" x="430" y="-418.1" font-family="Times Roman,serif" font-size="11.00">CheddarGetter_Client_AdapterInterface</text>
</g>
<!-- \\CheddarGetter_Client_CurlAdapter&#45;&gt;\\CheddarGetter_Client_AdapterInterface -->
<g id="edge3" class="edge"><title>\\CheddarGetter_Client_CurlAdapter&#45;&gt;\\CheddarGetter_Client_AdapterInterface</title>
<path fill="none" stroke="black" stroke-dasharray="1,5" d="M624.374,-403.33C602.392,-405.328 578.924,-407.461 556.171,-409.53"/>
<polygon fill="none" stroke="black" points="555.766,-406.052 546.124,-410.443 556.4,-413.023 555.766,-406.052"/>
</g>
<!-- \\CheddarGetter_Client_Exception -->
<g id="node3" class="node"><title>\\CheddarGetter_Client_Exception</title>
<polygon fill="none" stroke="black" points="824,-250 630,-250 630,-214 824,-214 824,-250"/>
<text text-anchor="middle" x="727" y="-229.1" font-family="Times Roman,serif" font-size="11.00">CheddarGetter_Client_Exception</text>
</g>
<!-- \\Exception -->
<g id="node14" class="node"><title>\\Exception</title>
<ellipse fill="none" stroke="black" cx="430" cy="-72" rx="62.9325" ry="18.3848"/>
<text text-anchor="middle" x="430" y="-68.4" font-family="Times Roman,serif" font-size="14.00" fill="gray">\Exception</text>
</g>
<!-- \\CheddarGetter_Client_Exception&#45;&gt;\\Exception -->
<g id="edge5" class="edge"><title>\\CheddarGetter_Client_Exception&#45;&gt;\\Exception</title>
<path fill="none" stroke="black" d="M633.276,-213.961C627.907,-211.363 622.763,-208.394 618,-205 570.111,-170.877 594.816,-126.784 546,-94 533.158,-85.3754 517.806,-79.9239 502.541,-76.5242"/>
<polygon fill="none" stroke="black" points="503.034,-73.0545 492.549,-74.5736 501.693,-79.9248 503.034,-73.0545"/>
</g>
<!-- \\CheddarGetter_Client_ZendAdapter -->
<g id="node4" class="node"><title>\\CheddarGetter_Client_ZendAdapter</title>
<polygon fill="none" stroke="black" points="833,-466 621,-466 621,-430 833,-430 833,-466"/>
<text text-anchor="middle" x="727" y="-445.1" font-family="Times Roman,serif" font-size="11.00">CheddarGetter_Client_ZendAdapter</text>
</g>
<!-- \\CheddarGetter_Client_ZendAdapter&#45;&gt;\\CheddarGetter_Client_AdapterInterface -->
<g id="edge7" class="edge"><title>\\CheddarGetter_Client_ZendAdapter&#45;&gt;\\CheddarGetter_Client_AdapterInterface</title>
<path fill="none" stroke="black" stroke-dasharray="1,5" d="M620.615,-438.329C599.78,-436.435 577.739,-434.431 556.327,-432.484"/>
<polygon fill="none" stroke="black" points="556.485,-428.984 546.209,-431.564 555.851,-435.956 556.485,-428.984"/>
</g>
<!-- \\CheddarGetter_Client -->
<g id="node5" class="node"><title>\\CheddarGetter_Client</title>
<polygon fill="none" stroke="black" points="794,-304 660,-304 660,-268 794,-268 794,-304"/>
<text text-anchor="middle" x="727" y="-283.1" font-family="Times Roman,serif" font-size="11.00">CheddarGetter_Client</text>
</g>
<!-- \\CheddarGetter_Http_NativeAdapter -->
<g id="node6" class="node"><title>\\CheddarGetter_Http_NativeAdapter</title>
<polygon fill="none" stroke="black" points="536,-358 324,-358 324,-322 536,-322 536,-358"/>
<text text-anchor="middle" x="430" y="-337.1" font-family="Times Roman,serif" font-size="11.00">CheddarGetter_Http_NativeAdapter</text>
</g>
<!-- \\CheddarGetter_Http_AdapterInterface -->
<g id="node11" class="node"><title>\\CheddarGetter_Http_AdapterInterface</title>
<polygon fill="none" stroke="black" points="242,-358 16,-358 16,-322 242,-322 242,-358"/>
<text text-anchor="middle" x="129" y="-337.1" font-family="Times Roman,serif" font-size="11.00">CheddarGetter_Http_AdapterInterface</text>
</g>
<!-- \\CheddarGetter_Http_NativeAdapter&#45;&gt;\\CheddarGetter_Http_AdapterInterface -->
<g id="edge9" class="edge"><title>\\CheddarGetter_Http_NativeAdapter&#45;&gt;\\CheddarGetter_Http_AdapterInterface</title>
<path fill="none" stroke="black" stroke-dasharray="1,5" d="M323.879,-340C300.701,-340 275.981,-340 252.202,-340"/>
<polygon fill="none" stroke="black" points="252.076,-336.5 242.076,-340 252.076,-343.5 252.076,-336.5"/>
</g>
<!-- \\CheddarGetter_Http_ZendAdapter -->
<g id="node7" class="node"><title>\\CheddarGetter_Http_ZendAdapter</title>
<polygon fill="none" stroke="black" points="830,-358 624,-358 624,-322 830,-322 830,-358"/>
<text text-anchor="middle" x="727" y="-337.1" font-family="Times Roman,serif" font-size="11.00">CheddarGetter_Http_ZendAdapter</text>
</g>
<!-- \\CheddarGetter_Http_ZendAdapter&#45;&gt;\\CheddarGetter_Http_NativeAdapter -->
<g id="edge11" class="edge"><title>\\CheddarGetter_Http_ZendAdapter&#45;&gt;\\CheddarGetter_Http_NativeAdapter</title>
<path fill="none" stroke="black" d="M623.957,-340C598.887,-340 571.904,-340 546.267,-340"/>
<polygon fill="none" stroke="black" points="546.137,-336.5 536.137,-340 546.137,-343.5 546.137,-336.5"/>
</g>
<!-- \\CheddarGetter_Response_Exception -->
<g id="node8" class="node"><title>\\CheddarGetter_Response_Exception</title>
<polygon fill="none" stroke="black" points="835,-196 619,-196 619,-160 835,-160 835,-196"/>
<text text-anchor="middle" x="727" y="-175.1" font-family="Times Roman,serif" font-size="11.00">CheddarGetter_Response_Exception</text>
</g>
<!-- \\CheddarGetter_Response_Exception&#45;&gt;\\Exception -->
<g id="edge13" class="edge"><title>\\CheddarGetter_Response_Exception&#45;&gt;\\Exception</title>
<path fill="none" stroke="black" d="M639.531,-159.91C632.101,-157.305 624.826,-154.35 618,-151 581.36,-133.019 583.123,-110.96 546,-94 531.7,-87.467 515.556,-82.8739 499.957,-79.6446"/>
<polygon fill="none" stroke="black" points="500.287,-76.1448 489.809,-77.7128 498.978,-83.0213 500.287,-76.1448"/>
</g>
<!-- \\CheddarGetter_Response -->
<g id="node9" class="node"><title>\\CheddarGetter_Response</title>
<polygon fill="none" stroke="black" points="805,-142 649,-142 649,-106 805,-106 805,-142"/>
<text text-anchor="middle" x="727" y="-121.1" font-family="Times Roman,serif" font-size="11.00">CheddarGetter_Response</text>
</g>
<!-- \\DOMDocument -->
<g id="node20" class="node"><title>\\DOMDocument</title>
<ellipse fill="none" stroke="black" cx="430" cy="-18" rx="89.8026" ry="18.3848"/>
<text text-anchor="middle" x="430" y="-14.4" font-family="Times Roman,serif" font-size="14.00" fill="gray">\DOMDocument</text>
</g>
<!-- \\CheddarGetter_Response&#45;&gt;\\DOMDocument -->
<g id="edge15" class="edge"><title>\\CheddarGetter_Response&#45;&gt;\\DOMDocument</title>
<path fill="none" stroke="black" d="M691.022,-105.958C655.036,-88.4748 597.746,-62.1546 546,-45 532.655,-40.5758 518.215,-36.597 504.204,-33.1391"/>
<polygon fill="none" stroke="black" points="504.639,-29.6444 494.099,-30.7144 503.006,-36.4512 504.639,-29.6444"/>
</g>
</g>
</svg>
