<?xml version="1.0" encoding="UTF-8" standalone="no"?>
<!DOCTYPE svg PUBLIC "-//W3C//DTD SVG 1.1//EN"
 "http://www.w3.org/Graphics/SVG/1.1/DTD/svg11.dtd">
<!-- Generated by graphviz version 2.26.3 (20100126.1600)
 -->
<!-- Title: G Pages: 1 -->
<svg width="938pt" height="512pt"
 viewBox="0.00 0.00 938.00 512.00" xmlns="http://www.w3.org/2000/svg" xmlns:xlink="http://www.w3.org/1999/xlink">
<g id="graph1" class="graph" transform="scale(1 1) rotate(0) translate(4 508)">
<title>G</title>
<polygon fill="white" stroke="white" points="-4,5 -4,-508 935,-508 935,5 -4,5"/>
<g id="graph2" class="cluster"><title>cluster_global</title>
<polyline fill="none" stroke="gray" points="20,-98 910,-98 "/>
<path fill="none" stroke="gray" d="M910,-98C916,-98 922,-104 922,-110"/>
<polyline fill="none" stroke="gray" points="922,-110 922,-484 "/>
<path fill="none" stroke="gray" d="M922,-484C922,-490 916,-496 910,-496"/>
<polyline fill="none" stroke="gray" points="910,-496 20,-496 "/>
<path fill="none" stroke="gray" d="M20,-496C14,-496 8,-490 8,-484"/>
<polyline fill="none" stroke="gray" points="8,-484 8,-110 "/>
<path fill="none" stroke="gray" d="M8,-110C8,-104 14,-98 20,-98"/>
<text text-anchor="middle" x="465" y="-482.1" font-family="Times Roman,serif" font-size="11.00" fill="gray">global</text>
</g>
<!-- \\CheddarGetter_Client_AdapterInterface -->
<g id="node2" class="node"><title>\\CheddarGetter_Client_AdapterInterface</title>
<a xlink:href="Client.AdapterInterface.html" xlink:title="CheddarGetter_Client_AdapterInterface" target="_parent">
<polygon fill="none" stroke="black" points="608,-439 342,-439 342,-403 608,-403 608,-439"/>
<text text-anchor="middle" x="475" y="-418.1" font-family="Courier,monospace" font-size="11.00">CheddarGetter_Client_AdapterInterface</text>
</a>
</g>
<!-- \\CheddarGetter_Client_CurlAdapter -->
<g id="node3" class="node"><title>\\CheddarGetter_Client_CurlAdapter</title>
<a xlink:href="Client.CurlAdapter.html" xlink:title="CheddarGetter_Client_CurlAdapter" target="_parent">
<polygon fill="none" stroke="black" points="913,-412 681,-412 681,-376 913,-376 913,-412"/>
<text text-anchor="middle" x="797" y="-391.1" font-family="Courier,monospace" font-size="11.00">CheddarGetter_Client_CurlAdapter</text>
</a>
</g>
<!-- \\CheddarGetter_Client_CurlAdapter&#45;&gt;\\CheddarGetter_Client_AdapterInterface -->
<g id="edge11" class="edge"><title>\\CheddarGetter_Client_CurlAdapter&#45;&gt;\\CheddarGetter_Client_AdapterInterface</title>
<path fill="none" stroke="black" stroke-dasharray="1,5" d="M680.295,-403.786C660.188,-405.472 639.081,-407.242 618.368,-408.978"/>
<polygon fill="none" stroke="black" points="617.91,-405.504 608.238,-409.828 618.495,-412.48 617.91,-405.504"/>
</g>
<!-- \\CheddarGetter_Client_Exception -->
<g id="node4" class="node"><title>\\CheddarGetter_Client_Exception</title>
<a xlink:href="Client.Exception.html" xlink:title="CheddarGetter_Client_Exception" target="_parent">
<polygon fill="none" stroke="black" points="906,-250 688,-250 688,-214 906,-214 906,-250"/>
<text text-anchor="middle" x="797" y="-229.1" font-family="Courier,monospace" font-size="11.00">CheddarGetter_Client_Exception</text>
</a>
</g>
<!-- \\Exception -->
<g id="node13" class="node"><title>\\Exception</title>
<ellipse fill="none" stroke="black" cx="475" cy="-72" rx="62.9325" ry="18.3848"/>
<text text-anchor="middle" x="475" y="-68.4" font-family="Times Roman,serif" font-size="14.00" fill="gray">\Exception</text>
</g>
<!-- \\CheddarGetter_Client_Exception&#45;&gt;\\Exception -->
<g id="edge3" class="edge"><title>\\CheddarGetter_Client_Exception&#45;&gt;\\Exception</title>
<path fill="none" stroke="black" d="M695.269,-213.868C689.915,-211.288 684.781,-208.349 680,-205 631.839,-171.261 657.198,-126.208 608,-94 590.415,-82.4878 568.801,-76.3452 548.148,-73.2217"/>
<polygon fill="none" stroke="black" points="548.476,-69.7349 538.109,-71.9205 547.576,-76.6768 548.476,-69.7349"/>
</g>
<!-- \\CheddarGetter_Client_ZendAdapter -->
<g id="node5" class="node"><title>\\CheddarGetter_Client_ZendAdapter</title>
<a xlink:href="Client.ZendAdapter.html" xlink:title="CheddarGetter_Client_ZendAdapter" target="_parent">
<polygon fill="none" stroke="black" points="913,-466 681,-466 681,-430 913,-430 913,-466"/>
<text text-anchor="middle" x="797" y="-445.1" font-family="Courier,monospace" font-size="11.00">CheddarGetter_Client_ZendAdapter</text>
</a>
</g>
<!-- \\CheddarGetter_Client_ZendAdapter&#45;&gt;\\CheddarGetter_Client_AdapterInterface -->
<g id="edge13" class="edge"><title>\\CheddarGetter_Client_ZendAdapter&#45;&gt;\\CheddarGetter_Client_AdapterInterface</title>
<path fill="none" stroke="black" stroke-dasharray="1,5" d="M680.295,-438.214C660.188,-436.528 639.081,-434.758 618.368,-433.022"/>
<polygon fill="none" stroke="black" points="618.495,-429.52 608.238,-432.172 617.91,-436.496 618.495,-429.52"/>
</g>
<!-- \\CheddarGetter_Client -->
<g id="node6" class="node"><title>\\CheddarGetter_Client</title>
<a xlink:href="Client.html" xlink:title="CheddarGetter_Client" target="_parent">
<polygon fill="none" stroke="black" points="873,-304 721,-304 721,-268 873,-268 873,-304"/>
<text text-anchor="middle" x="797" y="-283.1" font-family="Courier,monospace" font-size="11.00">CheddarGetter_Client</text>
</a>
</g>
<!-- \\CheddarGetter_Http_AdapterInterface -->
<g id="node7" class="node"><title>\\CheddarGetter_Http_AdapterInterface</title>
<a xlink:href="Http.AdapterInterface.html" xlink:title="CheddarGetter_Http_AdapterInterface" target="_parent">
<polygon fill="none" stroke="black" points="269,-358 17,-358 17,-322 269,-322 269,-358"/>
<text text-anchor="middle" x="143" y="-337.1" font-family="Courier,monospace" font-size="11.00">CheddarGetter_Http_AdapterInterface</text>
</a>
</g>
<!-- \\CheddarGetter_Http_NativeAdapter -->
<g id="node8" class="node"><title>\\CheddarGetter_Http_NativeAdapter</title>
<a xlink:href="Http.NativeAdapter.html" xlink:title="CheddarGetter_Http_NativeAdapter" target="_parent">
<polygon fill="none" stroke="black" points="591,-358 359,-358 359,-322 591,-322 591,-358"/>
<text text-anchor="middle" x="475" y="-337.1" font-family="Courier,monospace" font-size="11.00">CheddarGetter_Http_NativeAdapter</text>
</a>
</g>
<!-- \\CheddarGetter_Http_NativeAdapter&#45;&gt;\\CheddarGetter_Http_AdapterInterface -->
<g id="edge15" class="edge"><title>\\CheddarGetter_Http_NativeAdapter&#45;&gt;\\CheddarGetter_Http_AdapterInterface</title>
<path fill="none" stroke="black" stroke-dasharray="1,5" d="M358.416,-340C333.097,-340 306.09,-340 280.063,-340"/>
<polygon fill="none" stroke="black" points="279.756,-336.5 269.756,-340 279.756,-343.5 279.756,-336.5"/>
</g>
<!-- \\CheddarGetter_Http_ZendAdapter -->
<g id="node9" class="node"><title>\\CheddarGetter_Http_ZendAdapter</title>
<a xlink:href="Http.ZendAdapter.html" xlink:title="CheddarGetter_Http_ZendAdapter" target="_parent">
<polygon fill="none" stroke="black" points="906,-358 688,-358 688,-322 906,-322 906,-358"/>
<text text-anchor="middle" x="797" y="-337.1" font-family="Courier,monospace" font-size="11.00">CheddarGetter_Http_ZendAdapter</text>
</a>
</g>
<!-- \\CheddarGetter_Http_ZendAdapter&#45;&gt;\\CheddarGetter_Http_NativeAdapter -->
<g id="edge5" class="edge"><title>\\CheddarGetter_Http_ZendAdapter&#45;&gt;\\CheddarGetter_Http_NativeAdapter</title>
<path fill="none" stroke="black" d="M687.086,-340C659.664,-340 630.036,-340 601.869,-340"/>
<polygon fill="none" stroke="black" points="601.564,-336.5 591.564,-340 601.564,-343.5 601.564,-336.5"/>
</g>
<!-- \\CheddarGetter_Response_Exception -->
<g id="node10" class="node"><title>\\CheddarGetter_Response_Exception</title>
<a xlink:href="Response.Exception.html" xlink:title="CheddarGetter_Response_Exception" target="_parent">
<polygon fill="none" stroke="black" points="913,-196 681,-196 681,-160 913,-160 913,-196"/>
<text text-anchor="middle" x="797" y="-175.1" font-family="Courier,monospace" font-size="11.00">CheddarGetter_Response_Exception</text>
</a>
</g>
<!-- \\CheddarGetter_Response_Exception&#45;&gt;\\Exception -->
<g id="edge7" class="edge"><title>\\CheddarGetter_Response_Exception&#45;&gt;\\Exception</title>
<path fill="none" stroke="black" d="M702.193,-159.972C694.537,-157.362 687.045,-154.388 680,-151 643.218,-133.313 645.32,-110.522 608,-94 589.052,-85.6112 567.301,-80.3935 546.953,-77.1568"/>
<polygon fill="none" stroke="black" points="547.179,-73.653 536.779,-75.6802 546.173,-80.5804 547.179,-73.653"/>
</g>
<!-- \\CheddarGetter_Response -->
<g id="node11" class="node"><title>\\CheddarGetter_Response</title>
<a xlink:href="Response.html" xlink:title="CheddarGetter_Response" target="_parent">
<polygon fill="none" stroke="black" points="879,-142 715,-142 715,-106 879,-106 879,-142"/>
<text text-anchor="middle" x="797" y="-121.1" font-family="Courier,monospace" font-size="11.00">CheddarGetter_Response</text>
</a>
</g>
<!-- \\DOMDocument -->
<g id="node17" class="node"><title>\\DOMDocument</title>
<ellipse fill="none" stroke="black" cx="475" cy="-18" rx="89.8026" ry="18.3848"/>
<text text-anchor="middle" x="475" y="-14.4" font-family="Times Roman,serif" font-size="14.00" fill="gray">\DOMDocument</text>
</g>
<!-- \\CheddarGetter_Response&#45;&gt;\\DOMDocument -->
<g id="edge9" class="edge"><title>\\CheddarGetter_Response&#45;&gt;\\DOMDocument</title>
<path fill="none" stroke="black" d="M759.793,-105.889C722.246,-88.227 662.222,-61.6602 608,-45 591.056,-39.7937 572.584,-35.3156 554.945,-31.5873"/>
<polygon fill="none" stroke="black" points="555.174,-28.0613 544.675,-29.4789 553.766,-34.9183 555.174,-28.0613"/>
</g>
</g>
</svg>
